# xmcd CD database file
#
# Track frame offsets:
#	183
#	27193
#	60013
#	82608
#	104693
#	135205
#	154565
#	194700
#	223923
#	253380
#	281753
#	304758
#
# Disc length: 4173 seconds
#
# Revision: 0
# Processed by: cddbd v1.4PL0 Copyright (c) Steve Scherf et al.
# Submitted via: CDex 1.50beta10
#
DISCID=a2104b0c
DTITLE=Paul Winter Consort - Live in Spain
DYEAR=1992
DGENRE=New Age
TTITLE0=River run
TTITLE1=Farewell
TTITLE2=Appalachian morning
TTITLE3=Winter's dream
TTITLE4=Spanish angel
TTITLE5=Montana
TTITLE6=Musica para una noche de domingo en Salamanca
TTITLE7=Oak Theme
TTITLE8=Duet for two percussionists
TTITLE9=Suite from the an who planted trees
TTITLE10=Dancing particles
TTITLE11=Blues for Cadiz
EXTD=YEAR: 1992
EXTT0=
EXTT1=
EXTT2=
EXTT3=
EXTT4=
EXTT5=
EXTT6=
EXTT7=
EXTT8=
EXTT9=
EXTT10=
EXTT11=
PLAYORDER=
